<?xml version="1.0" standalone="no"?>
<!DOCTYPE svg PUBLIC "-//W3C//DTD SVG 20010904//EN"
 "http://www.w3.org/TR/2001/REC-SVG-20010904/DTD/svg10.dtd">
<svg version="1.0" xmlns="http://www.w3.org/2000/svg"
 width="286.000000pt" height="291.000000pt" viewBox="0 0 286.000000 291.000000"
 preserveAspectRatio="xMidYMid meet">
<metadata>
Created by potrace 1.16, written by Peter Selinger 2001-2019
</metadata>
<g transform="translate(0.000000,291.000000) scale(0.100000,-0.100000)"
fill="#000000" stroke="none">
<path d="M935 2156 c-91 -60 -187 -158 -228 -233 -34 -64 -67 -190 -67 -257 0
-77 26 -171 70 -255 22 -42 45 -96 51 -120 12 -48 16 -49 23 -5 17 97 69 177
145 226 25 15 49 28 54 28 4 0 -12 -26 -36 -57 -56 -73 -65 -91 -77 -152 -16
-83 24 -167 100 -210 l39 -22 -35 66 c-23 45 -34 80 -34 108 0 89 74 190 214
293 36 26 66 52 66 56 0 4 -32 56 -71 116 -141 211 -187 349 -145 433 9 18 15
33 14 35 -2 1 -39 -21 -83 -50z"/>
<path d="M1267 1455 c-36 -31 -37 -33 -15 -39 13 -3 34 -6 49 -6 26 0 49 -16
49 -35 0 -8 -14 -10 -47 -4 -90 15 -128 11 -152 -15 l-22 -24 88 -12 c169 -23
178 -25 181 -43 4 -21 1 -21 -163 3 l-130 18 -23 -25 c-13 -14 -21 -27 -19
-29 2 -2 84 -15 181 -27 169 -22 195 -30 196 -59 0 -4 -12 -5 -27 -2 -16 3
-105 15 -200 27 -183 24 -183 24 -183 -23 0 -15 12 -19 68 -25 37 -4 130 -15
207 -26 127 -18 167 -32 147 -51 -6 -5 -195 16 -317 37 -25 4 -27 3 -12 -6 26
-15 193 -49 244 -49 23 0 45 -6 50 -12 4 -7 10 -65 13 -128 l6 -115 23 73 c20
64 23 87 18 175 -3 66 -13 125 -27 167 -23 71 -117 265 -134 279 -7 6 -25 -3
-49 -24z"/>
<path d="M369 463 c-42 -106 -59 -155 -59 -168 0 -26 21 -16 31 15 10 27 16
30 50 30 35 0 41 -3 50 -30 10 -26 39 -43 39 -22 0 18 -80 197 -89 200 -6 2
-16 -9 -22 -25z"/>
<path d="M960 380 c0 -85 3 -111 13 -108 6 3 13 23 15 46 l3 42 49 0 49 0 3
-42 c2 -23 9 -43 16 -46 9 -3 12 23 12 108 0 85 -3 111 -12 108 -7 -3 -14 -25
-16 -51 l-3 -47 -49 0 -49 0 -3 47 c-2 26 -9 48 -15 51 -10 3 -13 -23 -13
-108z"/>
<path d="M1336 483 c-3 -3 -6 -17 -6 -30 0 -18 -5 -23 -26 -23 -61 0 -95 -55
-69 -115 14 -36 34 -45 93 -43 l32 1 0 103 c0 94 -7 124 -24 107z"/>
<path d="M1573 414 c-8 -22 2 -199 12 -199 6 0 11 14 13 31 3 27 6 30 32 26
21 -3 36 3 56 23 22 22 25 32 21 63 -4 19 -13 43 -22 51 -18 18 -105 23 -112
5z"/>
<path d="M2380 417 c-27 -20 -50 -60 -50 -84 0 -40 33 -63 90 -60 l50 2 0 58
c0 44 -5 62 -20 77 -23 23 -48 25 -70 7z"/>
<path d="M2019 401 c-17 -13 -23 -29 -23 -56 0 -61 67 -96 125 -64 26 14 14
31 -17 23 -28 -7 -74 2 -74 16 0 5 26 10 58 12 54 3 57 4 54 27 -6 58 -75 81
-123 42z"/>
</g>
</svg>
